<svg xmlns="http://www.w3.org/2000/svg" width="1100" height="680" viewBox="0 0 1100 680">
<defs><linearGradient id="g" x1="0" y1="0" x2="1" y2="1"><stop stop-color="#10283b"/><stop offset="1" stop-color="#385a58"/></linearGradient></defs>
<rect width="1100" height="680" rx="40" fill="url(#g)"/>
<g fill="none" stroke="#d6b977" stroke-width="10" opacity=".5" stroke-linecap="round" stroke-linejoin="round">
<path d="M80 500h190v-250h230v130h240V170h260"/>
<path d="M120 590h350v-90h300v70h250"/>
</g>
<g fill="#f4ead9" opacity=".92">
<circle cx="80" cy="500" r="18"/><circle cx="270" cy="250" r="18"/><circle cx="500" cy="380" r="18"/><circle cx="740" cy="170" r="18"/><circle cx="1000" cy="170" r="18"/>
<circle cx="120" cy="590" r="14"/><circle cx="470" cy="500" r="14"/><circle cx="770" cy="570" r="14"/><circle cx="1020" cy="570" r="14"/>
</g>
<g fill="#fff" opacity=".12"><circle cx="190" cy="130" r="90"/><circle cx="930" cy="390" r="145"/></g>
<g fill="none" stroke="#f4ead9" opacity=".28">
<circle cx="188" cy="132" r="52" stroke-width="2"/>
<circle cx="188" cy="132" r="72" stroke-width="1"/>
</g>
</svg>
